HIERARCHY
ROOT hip
{
	OFFSET 0.000000 0.000000 0.000000 
	CHANNELS 6 Xposition Yposition Zposition Xrotation Zrotation Yrotation
	JOINT abdomen
	{
		OFFSET 0.000000 3.402643 0.000000 
		CHANNELS 3 Xrotation Zrotation Yrotation
		JOINT chest
		{
			OFFSET 0.000000 8.438565 -0.680529 
			CHANNELS 3 Xrotation Zrotation Yrotation
			JOINT neck
			{
				OFFSET 0.000000 10.207942 -0.272212 
				CHANNELS 3 Xrotation Zrotation Yrotation
				JOINT head
				{
					OFFSET 0.000000 3.130431 0.000000 
					CHANNELS 3 Xrotation Zrotation Yrotation
					End Site
					{
						OFFSET 0.000000 3.130435 0.000000 
					}
				}
			}
			JOINT lCollar
			{
				OFFSET 3.470700 6.669187 -0.816635 
				CHANNELS 3 Yrotation Zrotation Xrotation
				JOINT lShldr
				{
					OFFSET 3.198488 0.000000 0.000000 
					CHANNELS 3 Zrotation Yrotation Xrotation
					JOINT lForeArm
					{
						OFFSET 10.139888 0.000000 0.000000 
						CHANNELS 3 Yrotation Zrotation Xrotation
						JOINT lHand
						{
							OFFSET 8.370511 0.000000 0.000000 
							CHANNELS 3 Zrotation Yrotation Xrotation
							End Site
							{
								OFFSET 4.083176 0.000000 0.000000 
							}
						}
					}
				}
			}
			JOINT rCollar
			{
				OFFSET -3.470700 6.669187 -0.816635 
				CHANNELS 3 Yrotation Zrotation Xrotation
				JOINT rShldr
				{
					OFFSET -3.198488 0.000000 0.000000 
					CHANNELS 3 Zrotation Yrotation Xrotation
					JOINT rForeArm
					{
						OFFSET -10.139888 0.000000 0.000000 
						CHANNELS 3 Yrotation Zrotation Xrotation
						JOINT rHand
						{
							OFFSET -8.370511 0.000000 0.000000 
							CHANNELS 3 Zrotation Yrotation Xrotation
							End Site
							{
								OFFSET -4.083176 0.000000 0.000000 
							}
						}
					}
				}
			}
		}
	}
	JOINT lThigh
	{
		OFFSET 5.308129 -1.633274 1.361059 
		CHANNELS 3 Xrotation Zrotation Yrotation
		JOINT lShin
		{
			OFFSET -2.041588 -20.007561 0.000000 
			CHANNELS 3 Xrotation Zrotation Yrotation
			JOINT lFoot
			{
				OFFSET 0.000000 -19.190928 -1.224953 
				CHANNELS 3 Xrotation Yrotation Zrotation
				End Site
				{
					OFFSET 0.000000 -2.449906 4.627600 
				}
			}
		}
	}
	JOINT rThigh
	{
		OFFSET -5.308129 -1.633274 1.361059 
		CHANNELS 3 Xrotation Zrotation Yrotation
		JOINT rShin
		{
			OFFSET 2.041588 -20.007561 0.000000 
			CHANNELS 3 Xrotation Zrotation Yrotation
			JOINT rFoot
			{
				OFFSET 0.000000 -19.190928 -1.224953 
				CHANNELS 3 Xrotation Yrotation Zrotation
				End Site
				{
					OFFSET 0.000000 -2.449906 4.627600 
				}
			}
		}
	}
}
MOTION
Frames: 15
Frame Time: 0.033333
1.685436 52.393215 -1.545660 -10.029297 -10.234374 132.705078 14.683564 -15.150695 -2.775615 -14.580077 5.966797 -0.233360 51.063168 8.107644 2.471410 -69.365234 -2.343750 -7.939455 2.000000 -2.000000 0.000000 -76.777344 -6.289063 -4.737396 -45.835922 -2.060260 -1.831973 15.044986 60.199265 10.554985 -2.000000 2.000000 0.000000 72.783203 -30.654299 13.725492 56.881844 1.545103 -2.224444 -14.732882 -65.246208 7.863655 -31.633421 8.512225 10.546204 44.109390 -3.895901 -3.567352 1.258052 4.711249 -0.309884 -13.206694 -0.847726 -13.167613 17.196627 4.921434 1.484777 -10.585133 -0.026270 0.344374 
3.369450 51.988335 -3.081973 -10.029297 -10.234374 132.353516 13.378019 -15.092273 -1.397628 -13.740234 5.253907 -0.165122 51.063168 8.107644 2.471410 -69.111328 -3.378906 -7.802735 2.000000 -2.000000 0.000000 -78.876953 -3.125000 -6.670454 -46.011700 -2.060260 -1.831973 18.627445 59.237663 11.497556 -2.000000 2.000000 0.000000 69.863281 -29.140627 16.806641 58.101517 1.337533 -2.187626 -13.928727 -63.797157 6.613472 -34.046993 7.878465 9.873253 37.421383 -4.230120 -3.288253 -4.118560 3.795381 -0.541155 -10.544585 -0.790583 -11.916985 16.833719 5.155663 1.173904 -12.267189 -0.364221 1.459331 
5.056310 51.592056 -4.636985 -10.029297 -10.234374 132.001953 12.403546 -15.013398 -0.074834 -13.037109 4.882813 -0.018700 51.063168 8.107644 2.471410 -68.847656 -4.091796 -8.124999 2.000000 -2.000000 0.000000 -80.869141 -0.380859 -8.964909 -45.846897 -2.229410 -1.880752 21.262180 59.049423 12.460777 -2.000000 2.000000 0.000000 68.476563 -28.154295 17.734375 59.168972 1.480832 -2.296633 -14.416134 -63.296524 6.857204 -36.452488 6.903511 9.011905 31.291080 -4.546959 -2.835302 -8.811552 2.233866 -0.499201 -7.667244 -0.866082 -11.193848 17.029001 5.341223 1.360629 -14.026277 -0.132114 2.088629 
6.750297 51.207188 -6.238746 -9.833984 -10.224608 131.609589 12.051203 -14.940672 0.848971 -12.871094 4.716797 -0.057791 51.063168 8.107644 2.471410 -68.320313 -4.150390 -8.691407 2.000000 -2.000000 0.000000 -82.080078 2.880860 -11.620602 -45.828831 -1.772345 -1.927044 20.003733 60.517204 12.846900 -2.000000 2.000000 0.000000 68.837891 -27.763672 15.932950 59.512989 1.602927 -2.377810 -14.756024 -63.585278 7.010764 -38.469082 6.081552 8.148284 26.183317 -4.755863 -2.441917 -12.067401 0.880183 -0.839309 -5.355614 -1.091278 -10.439790 17.744928 5.271138 1.403529 -15.302034 -0.211262 2.956048 
8.454723 50.820881 -7.894386 -9.658202 -10.244141 131.238510 11.896874 -14.750251 1.600039 -12.861328 4.873047 -0.009766 51.063168 8.107644 2.471410 -67.939453 -4.013671 -9.472657 2.000000 -2.000000 0.000000 -83.154297 5.400391 -14.520562 -45.479347 -2.068928 -1.645669 18.173532 62.366028 14.063461 -2.000000 2.000000 0.000000 70.351563 -27.949217 12.739566 59.521084 1.472218 -2.316690 -14.670898 -64.697945 6.658967 -40.337391 5.331158 6.423146 22.310579 -4.906348 -2.110184 -11.831151 -0.212785 -0.976668 -3.472262 -1.617628 -10.804805 19.661386 5.017846 1.703611 -14.708628 0.233647 2.496902 
10.168430 50.460876 -9.586289 -9.472656 -10.078124 130.818604 11.613821 -15.005938 2.088238 -13.017578 5.390625 0.126953 51.063168 8.107644 2.471410 -67.177734 -3.583984 -10.380859 2.000000 -2.000000 0.000000 -83.935547 7.578125 -16.004570 -45.479347 -2.068928 -1.645669 17.517893 64.054092 15.464231 -2.000000 2.000000 0.000000 71.894531 -28.271486 9.570312 59.521084 1.472218 -2.316690 -16.347692 -65.586563 8.275352 -41.677452 4.570045 4.744329 20.346313 -4.905564 -1.927638 -9.129649 -1.587718 -0.902352 -2.078293 -2.438216 -11.167221 22.667391 5.124809 1.810459 -13.703337 1.191531 1.706835 
11.889043 50.037041 -11.305401 -8.925781 -9.902344 130.164337 11.198911 -16.121151 2.411835 -13.330077 6.416016 0.391716 51.063168 8.107644 2.471410 -66.074219 -3.017578 -11.514186 2.000000 -2.000000 0.000000 -83.515625 8.789063 -14.394531 -45.654907 -2.048860 -1.637064 18.749102 65.232185 17.002405 -2.000000 2.000000 0.000000 73.164063 -29.462893 6.411212 59.521084 1.472218 -2.316690 -17.998131 -66.693352 8.860801 -42.125214 3.808347 2.936134 19.312887 -4.934805 -1.836747 -8.596115 -2.958021 -1.061390 -0.165918 -3.292719 -11.209799 24.984871 5.047900 1.886395 -12.011780 1.472340 1.025884 
13.614046 49.702309 -13.042654 -8.388672 -9.746094 129.353806 10.641065 -17.749912 2.647674 -13.789063 7.636719 0.673828 51.063168 8.107644 2.471410 -64.628906 -2.646484 -12.412110 2.000000 -2.000000 0.000000 -82.343750 10.058594 -11.433841 -46.363850 -2.032152 -1.853174 19.846508 66.292160 17.194250 -2.000000 2.000000 0.000000 75.332031 -31.191404 2.958984 58.993176 1.490582 -2.296065 -19.039801 -67.145142 8.960951 -41.930119 3.466428 0.529956 24.099852 -5.361901 -2.270001 -6.253333 0.611501 -1.254256 2.245010 -3.758843 -10.375352 25.364492 5.201978 1.950610 -8.703236 -0.727757 -3.868351 
15.341127 49.445965 -14.789039 -7.675781 -9.589844 128.504227 10.364426 -19.141171 2.410080 -14.248047 8.837892 1.113281 51.063168 8.107644 2.471410 -63.408203 -2.939453 -12.792970 2.000000 -2.000000 0.000000 -81.630859 10.449220 -9.011898 -46.891739 -2.023542 -1.873235 20.542482 65.887169 17.035700 -2.000000 2.000000 0.000000 76.845703 -32.968754 0.712891 58.641060 1.499196 -2.276007 -20.712461 -67.827965 10.511822 -39.437195 2.265152 -0.044175 24.792177 -4.775845 -3.098022 -1.599257 3.933024 -2.604075 4.331890 -3.786231 -10.092702 25.348198 4.655605 2.293446 -2.382329 -4.129735 -8.888700 
17.067865 49.584263 -16.535330 -6.953125 -9.267578 127.830460 10.504899 -19.236675 1.850950 -14.570313 9.375000 1.191406 51.063168 8.107644 2.471410 -62.246098 -3.740234 -12.177735 2.000000 -2.000000 0.000000 -82.978516 10.214844 -9.285376 -46.715107 -1.923774 -1.839956 19.014500 63.702709 13.145819 -2.000000 2.000000 0.000000 76.972656 -34.482422 1.683926 58.102051 1.338668 -2.207117 -19.623571 -68.664230 10.941596 -36.278400 1.629985 -1.108722 24.232018 -4.888115 -2.539436 2.021675 6.387152 -3.507179 0.370283 -4.567757 -8.439621 32.039986 4.295136 2.616212 17.501074 -7.539024 -11.578189 
18.791939 49.681850 -18.272713 -6.240234 -8.925781 127.158203 11.385654 -18.213100 0.910659 -14.931641 9.384767 1.310186 51.063168 8.107644 2.471410 -61.669922 -5.009765 -10.586791 2.000000 -2.000000 0.000000 -85.166016 8.945313 -10.937500 -46.186954 -1.931814 -1.810150 18.107910 60.253620 9.444436 -2.000000 2.000000 0.000000 75.390625 -36.054688 4.804687 57.749928 1.357031 -2.186491 -18.644341 -69.562645 12.512742 -32.871716 1.103163 -1.018628 24.777081 -4.852992 -2.558723 -0.529120 6.224810 -4.482683 2.936779 -4.820525 -7.447843 28.180204 4.841579 2.433453 32.085827 -12.823355 -14.931931 
20.510805 51.303543 -19.992046 -5.517578 -8.593750 126.648239 12.674108 -16.212570 -0.368633 -15.322266 8.906250 1.289063 51.063168 8.107644 2.471410 -61.093746 -6.298828 -8.653415 2.000000 -2.000000 0.000000 -86.240234 6.904297 -11.132813 -46.356716 -1.763734 -1.947105 16.046551 58.017422 6.048599 -2.000000 2.000000 0.000000 73.740234 -36.855473 7.529296 57.222275 1.385710 -2.175045 -17.266644 -69.720306 12.528032 -28.496584 0.868347 0.010952 24.060099 -4.810685 -3.015156 -2.789766 5.880064 -4.364524 -5.312213 -4.843381 -7.070383 37.979919 3.983448 2.828598 35.083340 -15.187086 -11.563312 
22.222151 51.981392 -21.684181 -5.156250 -8.242188 126.561096 13.938436 -13.984076 -1.699640 -15.693360 8.408204 1.103516 51.063168 8.107644 2.471410 -60.517578 -7.578125 -6.777344 2.000000 -2.000000 0.000000 -85.263672 3.535156 -9.520884 -46.715958 -2.023542 -1.873235 14.261624 57.422180 4.374480 -2.000000 2.000000 0.000000 73.046875 -36.933594 8.759767 57.046227 1.385142 -2.165299 -18.256750 -68.732788 12.665653 -23.819834 0.653696 0.475595 21.422676 -4.990158 -2.303323 -3.235781 4.938142 -4.281301 -17.641157 -5.232517 -6.610999 51.508804 3.064006 3.783792 26.105974 -14.196866 -1.663663 
23.923546 52.360172 -23.340097 -4.794922 -7.724609 127.177742 15.013936 -11.745317 -2.948785 -16.093752 7.753907 1.064453 51.063168 8.107644 2.471410 -59.482422 -8.027344 -5.986469 2.000000 -2.000000 0.000000 -82.861328 -0.263672 -6.523482 -47.771984 -2.016639 -1.922532 11.422815 57.862644 2.950550 -2.000000 2.000000 0.000000 73.291016 -36.562500 8.705120 57.046227 1.385142 -2.165299 -19.314348 -67.180359 12.005147 -18.843065 0.673127 0.360850 18.969805 -5.516741 -1.836236 -4.487219 3.999044 -3.677927 -26.967148 -5.594092 -6.636999 59.217953 2.470558 4.153399 16.524374 -13.328088 5.234322 
25.612671 52.609238 -24.950769 -4.794922 -7.031250 128.369141 16.049349 -9.780544 -4.030620 -16.113281 7.246094 1.123047 51.063168 8.107644 2.471410 -57.890629 -8.007812 -5.878907 2.000000 -2.000000 0.000000 -80.292969 -4.599609 -3.438282 -48.652950 -2.167996 -2.002057 8.720218 58.303425 1.572163 -2.000000 2.000000 0.000000 73.281250 -36.611332 8.193359 57.749928 1.357031 -2.186491 -20.639824 -66.173035 12.223856 -14.304507 0.634101 0.956511 16.327103 -5.615386 -1.567892 -5.507221 2.125302 -2.649982 -30.067190 -5.693508 -7.587860 56.261173 2.689160 4.040308 11.741818 -11.209131 4.932287 
